<svg width="96" height="96" viewBox="0 0 96 96" fill="none" xmlns="http://www.w3.org/2000/svg">
  <rect x="13" y="13" width="70" height="70" rx="17" stroke="#003D9B" stroke-width="3.5"/>
  <path d="M34.366 43.327c1.155-.302 2.382.122 3.082 1.069l4.274 5.779 8.822-2.519-6.151-8.237c-.685-.916-.222-2.249.884-2.551l1.818-.496a3.973 3.973 0 0 1 3.49.807l9.35 8.027 7.116-2.034a4.181 4.181 0 0 1 5.193 2.874 4.18 4.18 0 0 1-2.874 5.193L40.63 59.354a4.108 4.108 0 0 1-4.485-1.537l-7.052-9.485c-1.252-1.68-.404-4.105 1.621-4.635l3.652-.37Z" fill="#003D9B"/>
  <rect x="32.5" y="59.5" width="31" height="3.8" rx="1.9" fill="#003D9B"/>
</svg>
