<svg width="1600" height="1000" viewBox="0 0 1600 1000" fill="none" xmlns="http://www.w3.org/2000/svg">
  <defs>
    <linearGradient id="bg" x1="164" y1="124" x2="1402" y2="904" gradientUnits="userSpaceOnUse">
      <stop stop-color="#EEF3FA"/>
      <stop offset="0.52" stop-color="#E2E9F2"/>
      <stop offset="1" stop-color="#F3EBDD"/>
    </linearGradient>
    <radialGradient id="sun" cx="0" cy="0" r="1" gradientUnits="userSpaceOnUse" gradientTransform="translate(1214 204) rotate(139.222) scale(428.004 282.399)">
      <stop stop-color="#FFF4E4"/>
      <stop offset="1" stop-color="#FFF4E4" stop-opacity="0"/>
    </radialGradient>
    <linearGradient id="mesh" x1="510" y1="232" x2="1079" y2="760" gradientUnits="userSpaceOnUse">
      <stop stop-color="#003D9B" stop-opacity="0.3"/>
      <stop offset="1" stop-color="#003D9B" stop-opacity="0.08"/>
    </linearGradient>
  </defs>

  <rect width="1600" height="1000" rx="44" fill="url(#bg)"/>
  <rect x="60" y="60" width="1480" height="880" rx="40" stroke="#C9D5E6"/>
  <circle cx="1214" cy="204" r="170" fill="url(#sun)"/>

  <rect x="128" y="148" width="1344" height="704" rx="38" fill="white" fill-opacity="0.44" stroke="#C9D5E6"/>
  <path d="M266 714L478 554L681 612L823 396L1018 446L1266 258" stroke="url(#mesh)" stroke-width="3" stroke-linecap="round"/>
  <path d="M266 714L454 326L698 240L918 548L1126 598L1324 408" stroke="url(#mesh)" stroke-width="2.5" stroke-linecap="round"/>
  <path d="M348 804L612 716L790 518L1008 678L1266 744" stroke="url(#mesh)" stroke-width="2.5" stroke-linecap="round"/>

  <circle cx="266" cy="714" r="8" fill="#003D9B"/>
  <circle cx="478" cy="554" r="7" fill="#4F7FD5"/>
  <circle cx="681" cy="612" r="7" fill="#4F7FD5"/>
  <circle cx="823" cy="396" r="8" fill="#003D9B"/>
  <circle cx="1018" cy="446" r="7" fill="#4F7FD5"/>
  <circle cx="1266" cy="258" r="8" fill="#003D9B"/>
  <circle cx="454" cy="326" r="7" fill="#4F7FD5"/>
  <circle cx="698" cy="240" r="8" fill="#003D9B"/>
  <circle cx="918" cy="548" r="7" fill="#4F7FD5"/>
  <circle cx="1126" cy="598" r="7" fill="#4F7FD5"/>
  <circle cx="1324" cy="408" r="8" fill="#003D9B"/>
  <circle cx="348" cy="804" r="7" fill="#4F7FD5"/>
  <circle cx="612" cy="716" r="7" fill="#4F7FD5"/>
  <circle cx="790" cy="518" r="10" fill="#003D9B"/>
  <circle cx="1008" cy="678" r="7" fill="#4F7FD5"/>
  <circle cx="1266" cy="744" r="8" fill="#003D9B"/>

  <rect x="172" y="188" width="286" height="164" rx="28" fill="white" fill-opacity="0.54" stroke="#C9D5E6"/>
  <rect x="1140" y="188" width="286" height="164" rx="28" fill="#0F2442" fill-opacity="0.92"/>
  <rect x="174" y="646" width="298" height="162" rx="28" fill="white" fill-opacity="0.56" stroke="#C9D5E6"/>
  <rect x="1102" y="640" width="324" height="182" rx="28" fill="white" fill-opacity="0.54" stroke="#C9D5E6"/>

  <path d="M228 256H388" stroke="#8EA2BE" stroke-width="2"/>
  <path d="M228 286H412" stroke="#8EA2BE" stroke-opacity="0.56" stroke-width="2"/>
  <path d="M228 316H358" stroke="#8EA2BE" stroke-opacity="0.4" stroke-width="2"/>

  <path d="M1198 256H1358" stroke="#FFF1DE" stroke-width="2"/>
  <path d="M1198 286H1382" stroke="#FFF1DE" stroke-opacity="0.56" stroke-width="2"/>
  <path d="M1198 316H1328" stroke="#FFF1DE" stroke-opacity="0.4" stroke-width="2"/>

  <rect x="112" y="88" width="232" height="48" rx="24" fill="white" fill-opacity="0.72" stroke="#C9D5E6"/>
</svg>
